<?xml version="1.0" encoding="UTF-8" standalone="no"?>
<svg
   xmlns:dc="http://purl.org/dc/elements/1.1/"
   xmlns:cc="http://creativecommons.org/ns#"
   xmlns:rdf="http://www.w3.org/1999/02/22-rdf-syntax-ns#"
   xmlns:svg="http://www.w3.org/2000/svg"
   xmlns="http://www.w3.org/2000/svg"
   id="svg8"
   version="1.1"
   viewBox="0 0 150.90874 150.90875"
   height="150.90875mm"
   width="150.90874mm">
  <defs
     id="defs2" />
  <metadata
     id="metadata5">
    <rdf:RDF>
      <cc:Work
         rdf:about="">
        <dc:format>image/svg+xml</dc:format>
        <dc:type
           rdf:resource="http://purl.org/dc/dcmitype/StillImage" />
        <dc:title></dc:title>
      </cc:Work>
    </rdf:RDF>
  </metadata>
  <g
     transform="translate(-22.573753,-28.267495)"
     style="display:inline"
     id="layer1">
    <path
       id="path142"
       d="m 91.566083,170.30879 c -1.58098,-1.16152 -1.76655,-2.57477 -1.95362,-14.87876 -0.15879,-10.44357 -0.19441,-11.0398 -0.72887,-12.19953 -0.30906,-0.67063 -0.96767,-1.5288 -1.46358,-1.90705 -1.90921,-1.45623 -2.54547,-1.503 -20.58192,-1.51307 -17.64573,-0.01 -19.08231,-0.0962 -21.92364,-1.31855 -1.63653,-0.70401 -3.25598,-2.41431 -3.70493,-3.91278 -0.44011,-1.46895 -0.38783,-4.79433 0.097,-6.16841 0.76008,-2.1543 2.58013,-3.54398 5.7351,-4.37897 1.44167,-0.38154 4.1346,-0.46237 20.3151,-0.60975 19.80752,-0.18041 19.70987,-0.17368 21.34101,-1.473 0.74973,-0.59721 0.75192,-0.6081 0.83753,-4.15263 0.0848,-3.51149 0.0775,-3.56376 -0.61232,-4.38357 -0.38398,-0.45634 -1.13698,-0.97101 -1.67333,-1.14371 -0.63263,-0.2037 -3.91156,-0.35359 -9.33445,-0.42669 l -8.35927,-0.11268 -0.16222,3.26322 c -0.18736,3.76871 -0.73886,6.17402 -1.61909,7.06155 -1.78976,1.80457 -3.32131,-1.7908 -3.32628,-7.80854 l -0.002,-2.42271 -9.72343,-0.12 c -10.0884,-0.12451 -11.50092,-0.27121 -13.17538,-1.36835 -1.82395,-1.1951 -0.69186,-2.93194 2.4329,-3.73253 1.6206,-0.41521 3.77285,-0.47643 20.30009,-0.5774 12.82671,-0.0784 19.17372,-0.0216 20.72912,0.18539 5.08106,0.67617 7.8618,2.62502 9.00161,6.3087 0.66267,2.14163 0.65161,7.56525 -0.0195,9.55752 -0.9925,2.94641 -2.69023,4.6073 -5.77749,5.65213 -1.63569,0.55357 -2.13735,0.5704 -21.25439,0.71302 -10.76854,0.0803 -19.81729,0.25056 -20.10834,0.37828 -1.19513,0.52446 -1.4552,0.97869 -1.4552,2.54164 0,0.9766 0.13178,1.62346 0.37123,1.82219 1.02732,0.8526 2.25122,0.9133 21.45689,1.06413 19.20286,0.15081 19.32377,0.15513 20.90208,0.74717 3.0538,1.14549 4.83863,2.99171 5.83707,6.0378 0.47674,1.45447 0.51293,2.40501 0.51293,13.47114 0,10.69204 -0.0483,12.06246 -0.47344,13.43802 -0.63586,2.05727 -1.593,2.98684 -2.43697,2.36678 z m -51.70143,-0.35437 c -4.37544,-0.74777 -7.25983,-3.51673 -8.19223,-7.86437 -0.3955,-1.84413 -0.41772,-48.89888 -0.0242,-51.32366 0.62444,-3.84809 2.16772,-5.39869 3.41115,-3.42733 1.1026,1.74808 1.16904,2.81288 1.27146,20.37587 l 0.0984,16.86718 19.49867,0.009 c 23.65494,0.0108 26.20905,0.17848 27.85943,1.82886 1.27978,1.27978 0.57618,2.28353 -2.19265,3.12802 -1.23558,0.37685 -4.03819,0.44004 -23.16759,0.52239 l -21.76198,0.0937 v 2.348 2.34801 l 21.3651,0.11978 c 22.13758,0.12411 23.10015,0.17196 25.22044,1.25365 1.96532,1.00263 1.28296,2.55359 -1.47409,3.35047 -1.43769,0.41555 -3.65357,0.46699 -23.48177,0.54517 l -21.89427,0.0863 v 1.0643 c 0,1.75178 0.55695,2.37667 2.63961,2.96161 0.55178,0.15497 9.24723,0.33291 21.30518,0.43599 18.40243,0.15732 20.50868,0.21897 21.77656,0.63741 1.73311,0.57198 2.49315,1.28252 2.3827,2.22751 -0.10059,0.86056 -1.33242,1.74343 -3.06946,2.19992 -1.53616,0.40369 -39.32138,0.59666 -41.57039,0.2123 z m 62.792407,-0.25675 c -1.15201,-0.3345 -1.80411,-1.1573 -1.80411,-2.27635 0,-1.68648 1.63167,-2.46224 5.18431,-2.46481 1.75789,-0.001 2.13508,-0.0869 2.76331,-0.62729 0.62441,-0.5371 0.74304,-0.86909 0.83683,-2.34194 l 0.10927,-1.71612 -1.54967,-0.15704 c -3.27768,-0.33214 -5.16794,-1.43629 -6.49048,-3.79125 -1.21683,-2.16674 -1.53197,-4.30569 -1.53489,-10.41784 -0.003,-7.24909 0.50277,-10.12931 1.91302,-10.88405 0.81743,-0.43749 1.82254,0.4683 2.41286,2.17444 0.4085,1.18064 0.53015,2.62394 0.6895,8.18044 0.24599,8.57761 0.47374,9.26042 3.08882,9.26042 h 1.4142 v -10.98021 -10.98021 h -1.1426 c -2.83885,0 -5.51947,-1.51665 -6.8416,-3.87089 -1.3434,-2.3921 -1.59909,-4.43948 -1.46608,-11.73952 0.0694,-3.80711 0.24375,-6.87912 0.42255,-7.44386 0.67142,-2.12064 2.0566,-2.94144 3.07145,-1.82004 0.95335,1.05343 1.24345,3.06953 1.44721,10.05765 0.11224,3.84931 0.32279,7.05482 0.49025,7.46391 0.54117,1.32201 1.25321,1.7965 2.69591,1.7965 h 1.32291 l 0.005,-5.35781 c 0.003,-2.94679 0.1201,-6.1519 0.26049,-7.12245 0.52542,-3.63245 1.70162,-5.8838 3.68225,-7.04819 1.17143,-0.68867 1.34388,-0.71217 5.22689,-0.71217 3.66724,0 4.08028,0.0482 4.7625,0.55619 0.96844,0.72107 1.33302,1.72865 0.93867,2.59416 -0.55271,1.21306 -1.47681,1.56626 -4.51983,1.72752 -1.54857,0.0821 -2.9779,0.25388 -3.1763,0.3818 -0.19839,0.12792 -0.60689,0.78276 -0.90778,1.4552 -0.48864,1.09202 -0.55966,1.87981 -0.66479,7.37419 l -0.1177,6.15156 h 1.21148 c 1.53018,0 2.40698,-0.3964 2.84435,-1.28594 0.21154,-0.43024 0.40709,-2.32401 0.50925,-4.93176 0.13707,-3.49908 0.26279,-4.44961 0.72485,-5.48024 0.84048,-1.87468 2.10933,-2.04517 3.30475,-0.44404 1.17689,1.57631 1.34433,10.05747 0.2544,12.88522 -1.16152,3.01349 -3.09797,4.39177 -6.67072,4.74796 l -1.97946,0.19735 -0.069,11.04635 -0.0691,11.04635 0.99509,-0.004 c 1.41703,-0.006 2.24099,-0.50469 2.836,-1.71797 0.45635,-0.93057 0.53994,-1.87478 0.70249,-7.93542 0.19181,-7.15163 0.47133,-9.13228 1.43983,-10.20246 0.30259,-0.33436 0.74283,-0.50841 1.16234,-0.45954 1.72203,0.20062 2.57206,4.80494 2.3103,12.51409 -0.16298,4.80015 -0.5518,6.88074 -1.63169,8.73125 -1.28633,2.20428 -3.32748,3.44347 -6.1595,3.73948 l -1.57523,0.16464 -0.15452,2.14898 c -0.085,1.18194 -0.36613,2.80382 -0.62478,3.60419 -0.63049,1.95098 -2.40501,3.75643 -4.11537,4.18711 -1.42371,0.35849 -6.56444,0.37594 -7.76838,0.0263 z m 31.50693,0.10456 c -3.00565,-0.41637 -4.63274,-1.47212 -4.22904,-2.74406 0.34877,-1.09886 3.87565,-2.07075 7.60248,-2.09497 l 1.25677,-0.008 v -23.28333 -23.28333 h -1.29361 c -0.85421,0 -1.47318,0.15727 -1.82229,0.46302 -1.187,1.03956 -1.21861,1.46295 -1.38784,18.58697 -0.1633,16.5233 -0.25449,18.01131 -1.21972,19.90206 -0.20209,0.39586 -0.6264,0.85835 -0.9429,1.02774 -0.50051,0.26786 -0.66644,0.20615 -1.27392,-0.47373 -1.36928,-1.53249 -1.45243,-2.68085 -1.45243,-20.05919 0,-14.63325 0.0379,-15.99917 0.48453,-17.4625 1.43369,-4.69727 4.47672,-6.65471 10.79129,-6.94157 l 3.07373,-0.13963 0.13701,-2.19606 c 0.21639,-3.4684 1.28968,-4.99435 3.17928,-4.52009 0.99951,0.25087 1.75752,2.03279 1.9552,4.59629 l 0.16341,2.11901 2.94006,0.14149 c 6.18468,0.29762 9.23672,2.2852 10.65762,6.94056 0.44663,1.46333 0.48454,2.82925 0.48454,17.4625 0,17.37834 -0.0832,18.5267 -1.45243,20.05919 -0.60748,0.67988 -0.77341,0.74159 -1.27392,0.47373 -0.31651,-0.16939 -0.74082,-0.63188 -0.94291,-1.02774 -0.96646,-1.89318 -1.05646,-3.37101 -1.21203,-19.90206 -0.14182,-15.07061 -0.18939,-16.35545 -0.6443,-17.40407 -0.57617,-1.32813 -1.06405,-1.64592 -2.52681,-1.64592 h -1.07573 v 23.25139 23.25139 l 3.30383,0.10999 c 2.81435,0.0937 3.41215,0.19063 4.0349,0.65428 1.40733,1.04778 1.4729,2.79432 0.13886,3.69891 -0.68791,0.46647 -1.4901,0.49732 -13.6953,0.52668 -7.13052,0.0171 -13.32177,-0.0183 -13.75833,-0.0788 z m 14.41979,-28.13053 v -23.28333 h -2.38125 -2.38125 v 23.28333 23.28333 h 2.38125 2.38125 z M 32.887773,99.801392 c -1.29269,-0.974264 -1.78063,-4.482908 -1.77439,-12.759201 0.005,-6.495611 0.2709,-8.669446 1.31009,-10.706436 1.3284,-2.603873 3.94987,-4.415216 7.26672,-5.021043 0.88858,-0.162298 4.85028,-0.287509 9.12813,-0.288496 7.12592,-0.0016 7.60357,-0.03212 8.35192,-0.532879 1.14094,-0.763452 3.94744,-1.582044 5.42396,-1.582044 1.45059,0 4.22236,0.798322 5.4965,1.583097 0.81721,0.503341 1.31185,0.533829 8.73125,0.538163 5.73227,0.0034 8.34071,0.105434 9.61943,0.376473 4.84303,1.02653 7.21257,3.7837 7.94889,9.249214 0.33638,2.496865 0.12301,14.143174 -0.29526,16.115817 -0.90636,4.274573 -2.96404,4.485323 -3.99619,0.409298 -0.16048,-0.633749 -0.3768,-4.664615 -0.48072,-8.957479 -0.17132,-7.077205 -0.23977,-7.917074 -0.73386,-9.004572 -0.64017,-1.40902 -1.83818,-2.49695 -3.21336,-2.918101 -0.54118,-0.16574 -2.71386,-0.362897 -4.82817,-0.438126 l -3.8442,-0.136784 -0.31424,2.155952 c -0.54655,3.749905 -1.75102,5.640564 -4.91552,7.715924 l -1.54108,1.010677 1.54108,0.783698 c 2.10636,1.071168 3.62478,2.443316 4.36101,3.940892 0.53485,1.087948 0.61764,1.651648 0.61858,4.211622 10e-4,2.589778 -0.0677,3.048203 -0.55472,3.704167 -0.4408,0.593717 -0.79841,0.764795 -1.72841,0.826895 -0.97538,0.0651 -1.28043,-0.0365 -1.81363,-0.604035 -0.54785,-0.583157 -0.66196,-1.023167 -0.78513,-3.027428 -0.19775,-3.217693 -0.66915,-3.685514 -6.19449,-6.147446 l -2.90276,-1.293378 -2.53489,0.839076 c -3.6013,1.192061 -5.06878,1.881592 -6.01211,2.824921 -0.78593,0.785937 -0.8294,0.941573 -0.93458,3.346323 -0.143,3.269642 -0.58525,3.983679 -2.46738,3.983679 -1.90388,0 -2.35349,-0.735987 -2.47512,-4.051746 -0.19593,-5.340894 1.02309,-7.393439 5.46259,-9.197792 l 1.45706,-0.59219 -1.37187,-0.695177 c -1.64669,-0.834443 -3.31549,-2.295215 -4.17189,-3.65184 -0.73751,-1.168291 -1.41431,-3.585482 -1.41431,-5.051207 v -1.036069 l -3.77031,0.118234 c -3.03768,0.09526 -4.00337,0.222441 -4.96968,0.654513 -1.40248,0.627095 -2.49193,1.821109 -2.92409,3.204721 -0.18003,0.576418 -0.393,4.216839 -0.51417,8.78918 -0.11376,4.292864 -0.31834,8.221927 -0.45461,8.73125 -0.65038,2.430786 -1.69736,3.400211 -2.78607,2.579683 z m 32.78363,-17.082096 c 4.72005,-1.789877 6.1801,-3.004471 6.18223,-5.142899 l 9.9e-4,-0.992188 h -2.37868 c -2.3781,0 -2.3791,-2.64e-4 -4.08367,-1.16728 -0.93774,-0.642006 -1.96269,-1.249074 -2.27766,-1.349042 -0.95752,-0.303906 -2.76421,0.113607 -4.06711,0.939882 -1.13094,0.717222 -1.43259,0.782691 -3.60624,0.782691 h -2.37206 V 76.725 c 0,1.943679 1.13234,3.439495 3.54106,4.677727 1.80196,0.926317 5.28588,2.301459 5.86185,2.313736 0.29665,0.0063 1.73633,-0.442402 3.19929,-0.997167 z m 43.295347,16.826379 c -0.31546,-0.33579 -0.7841,-1.323466 -1.04142,-2.194847 -0.42574,-1.441651 -0.47555,-3.385873 -0.55307,-21.589451 l -0.0852,-20.005124 -2.11319,-0.144841 c -3.80054,-0.260496 -5.843197,-1.854589 -4.57182,-3.567838 0.68688,-0.925589 2.0693,-1.395044 4.6562,-1.581183 l 2.05052,-0.147545 v -2.985755 c 0,-6.94993 1.25599,-10.525064 3.36069,-9.566146 1.30396,0.594094 1.90683,2.999029 2.11209,8.425469 l 0.15631,4.132328 1.71272,0.159937 c 1.99259,0.18607 3.26756,0.834486 3.62187,1.841991 0.61149,1.738757 -0.8773,3.022174 -3.81477,3.288536 l -1.56529,0.141935 -0.10188,20.00668 c -0.0753,14.778643 -0.18754,20.332289 -0.4297,21.252724 -0.70811,2.69155 -2.19953,3.804655 -3.39407,2.53313 z m 46.59037,-0.0961 c -0.9067,-1.383806 -1.19966,-3.324252 -1.34498,-8.908648 l -0.14287,-5.490104 h -14.3252 c -8.31179,0 -15.26636,-0.115597 -16.56723,-0.275373 -2.28225,-0.280313 -4.37981,-1.088295 -4.84549,-1.866487 -0.45329,-0.757487 0.0322,-1.786665 1.09963,-2.331247 2.06913,-1.055587 3.36951,-1.141066 19.29707,-1.268465 l 15.41198,-0.123277 v -1.287585 -1.287586 l -13.55989,-0.08863 c -12.20365,-0.07976 -13.70545,-0.136361 -15.01511,-0.565841 -3.15304,-1.033986 -5.01201,-2.812587 -5.9975,-5.738214 -0.3746,-1.112055 -0.48219,-2.220966 -0.47335,-4.878753 0.01,-2.96196 0.097,-3.655647 0.62727,-4.995552 1.73785,-4.390861 4.96841,-5.720072 13.90222,-5.720072 h 4.90594 v -1.5875 -1.5875 l -5.62239,-0.0046 c -7.38082,-0.006 -10.29835,-0.611462 -12.1954,-2.530723 -1.49592,-1.513435 -1.62908,-2.023697 -1.62908,-6.242678 0,-3.532808 0.0502,-3.950606 0.55619,-4.630208 0.72107,-0.968439 1.72865,-1.333024 2.59416,-0.938673 1.21296,0.552663 1.58231,1.503214 1.74862,4.500253 0.14386,2.592368 0.1998,2.81035 0.86897,3.38595 1.18099,1.015841 2.43929,1.2252 8.18883,1.36248 l 5.4901,0.131086 v -0.973424 c 0,-1.140088 -0.32844,-1.853664 -0.98483,-2.139654 -0.25871,-0.112717 -2.55397,-0.286758 -5.10058,-0.386756 -6.0157,-0.23622 -7.40833,-0.751528 -7.40833,-2.741254 0,-0.810528 0.9944,-1.639707 2.48193,-2.069542 0.62657,-0.181052 2.83345,-0.318536 5.19098,-0.323388 5.24405,-0.01079 6.95411,0.421707 8.74385,2.211442 1.28941,1.28941 2.10407,3.386734 2.10407,5.416894 v 1.003955 l 5.75469,-0.128924 c 5.89381,-0.132041 7.16199,-0.325291 8.3699,-1.275429 0.63777,-0.501668 0.69257,-0.703791 0.69839,-2.575705 0.008,-2.677186 0.34304,-4.016758 1.18521,-4.743296 1.36755,-1.179774 2.99375,-0.509592 3.58965,1.479352 0.44876,1.497836 0.2146,7.092885 -0.34016,8.127877 -1.09008,2.033694 -3.2183,3.259968 -6.61414,3.811038 -0.91483,0.148457 -4.13388,0.270822 -7.15344,0.271921 l -5.4901,0.002 v 1.5875 1.5875 l 4.82864,0.0021 c 5.25505,0.0021 7.35289,0.241618 9.65134,1.10158 2.0078,0.751213 3.77491,2.531628 4.56622,4.600604 1.10378,2.885934 1.02504,9.799957 -0.15259,13.399626 -0.4429,1.353722 -1.89655,2.856489 -2.76324,2.856489 -0.44592,0 -0.51996,0.184018 -0.51996,1.292432 v 1.292428 l 1.51661,0.18949 c 2.12874,0.265967 3.45991,0.858313 3.91752,1.743223 1.05949,2.048846 -0.3902,3.554605 -3.72179,3.865713 l -1.71234,0.159901 -0.005,3.467468 c -0.006,4.175577 -0.38068,8.042256 -0.94635,9.753843 -0.60899,1.842658 -1.83929,2.352038 -2.65906,1.100913 z m -17.02751,-29.61224 v -1.719792 h -7.27604 -7.27604 v 0.639818 c 0,2.225678 1.72128,2.695755 10.12031,2.76384 l 4.43177,0.03592 z m 17.85938,1.181153 c 1.45224,-0.42223 1.98437,-0.962824 1.98437,-2.015911 v -0.885034 h -7.40833 -7.40833 v 1.757982 1.757984 l 5.88698,-0.153659 c 3.23784,-0.08451 6.36323,-0.292127 6.94531,-0.461362 z m -17.85938,-9.808017 v -1.615403 l -6.15156,0.119357 c -7.54485,0.146391 -8.40052,0.394173 -8.40052,2.4326 v 0.678852 h 7.27604 7.27604 z m 19.79358,0.623218 c -0.0712,-0.860888 -0.22217,-1.061741 -1.14045,-1.517774 -0.94643,-0.470014 -1.72277,-0.535871 -7.34219,-0.622829 l -6.28385,-0.09724 v 1.615016 1.615017 h 7.4243 7.42431 z m -35.37252,31.940105 c -3.44269,-0.500293 -5.02468,-1.417662 -4.69691,-2.723637 0.17523,-0.698161 1.17004,-1.275027 3.08906,-1.791282 1.64957,-0.443759 22.79322,-0.648015 26.18263,-0.252931 3.10213,0.361595 4.85563,1.129824 4.97696,2.180466 0.15963,1.38231 -1.26727,2.132914 -4.97696,2.61807 -2.12993,0.278553 -22.62289,0.252963 -24.57478,-0.03069 z M 35.871293,67.86435 c -2.21534,-0.313081 -3.5329,-0.738539 -4.19376,-1.354219 -1.31321,-1.223444 0.0447,-2.618028 3.06769,-3.150473 0.98314,-0.173165 5.29987,-0.400246 9.59273,-0.504627 9.24114,-0.2247 9.78959,-0.368363 9.78959,-2.564336 v -0.639818 l -7.47448,-0.0046 c -10.25493,-0.0063 -13.79257,-0.41388 -15.03065,-1.731751 -1.28006,-1.362562 0.35475,-2.522209 4.243,-3.009754 1.23252,-0.154546 5.84572,-0.280993 10.25154,-0.280993 h 8.01059 v -1.56723 -1.567229 l -9.59115,-0.103874 c -8.0404,-0.08708 -9.80755,-0.175141 -10.9296,-0.544657 -2.52361,-0.831085 -3.18561,-2.394537 -1.49509,-3.530966 1.59263,-1.070624 2.93863,-1.21287 12.68927,-1.341016 l 9.32657,-0.122573 V 43.21505 c 0,-4.027685 0.90435,-5.4923 3.20111,-5.18424 2.52255,0.338345 2.70679,1.229579 2.55509,12.359636 -0.0961,7.0491 -0.19853,8.885086 -0.56841,10.186458 -1.01424,3.568464 -2.98225,5.711115 -6.24613,6.800405 -1.56879,0.52357 -2.33542,0.579178 -8.73125,0.633325 -3.8563,0.03265 -7.6663,-0.03319 -8.46666,-0.146299 z m 38.47089,-0.139906 c -4.41695,-0.960956 -6.98586,-3.722209 -7.78455,-8.36739 -0.1945,-1.131188 -0.27004,-4.58934 -0.21385,-9.789583 0.0861,-7.964695 0.0931,-8.053032 0.74834,-9.363468 0.68015,-1.360302 1.13534,-1.626059 2.28913,-1.336477 0.96153,0.241329 1.67201,2.054244 1.86241,4.752284 l 0.15685,2.222502 9.28903,0.12751 c 9.70079,0.133162 11.0726,0.278458 12.65175,1.340016 1.69051,1.136429 1.02851,2.699881 -1.4951,3.530966 -1.12204,0.369516 -2.8892,0.457579 -10.92959,0.544657 l -9.59115,0.103874 v 1.542292 1.542293 l 9.59115,0.120576 c 7.74994,0.09743 9.8705,0.201991 11.04635,0.544671 2.48698,0.724789 3.20863,2.215629 1.51529,3.130407 -1.66888,0.90157 -3.51003,1.07474 -12.84042,1.207728 l -9.34076,0.133135 0.0803,0.949468 c 0.0648,0.766141 0.25915,1.053536 1.00638,1.488432 0.8549,0.497554 1.5359,0.552252 8.86355,0.711914 9.77021,0.212882 12.59792,0.655625 13.36715,2.092934 0.25875,0.483476 0.22608,0.700852 -0.18884,1.256596 -1.06935,1.432279 -4.26306,1.915499 -12.46986,1.886728 -3.92174,-0.01376 -6.55902,-0.142629 -7.6136,-0.372065 z"
       style="fill:#ff0000;fill-opacity:1;stroke-width:0.26458332" />
    <rect
       rx="7.6729169"
       ry="7.6729169"
       y="30.299995"
       x="24.606253"
       height="146.84375"
       width="146.84373"
       id="rect8584"
       style="opacity:1;fill:none;fill-opacity:1;stroke:#ff0000;stroke-width:4.06500006;stroke-linejoin:round;stroke-miterlimit:4;stroke-dasharray:none" />
  </g>
</svg>
